<?xml version="1.0" encoding="utf-8"?>
<!-- Generator: Adobe Illustrator 17.1.0, SVG Export Plug-In . SVG Version: 6.00 Build 0)  -->
<!DOCTYPE svg PUBLIC "-//W3C//DTD SVG 1.1//EN" "http://www.w3.org/Graphics/SVG/1.1/DTD/svg11.dtd">
<svg version="1.1" id="Layer_1" xmlns="http://www.w3.org/2000/svg" xmlns:xlink="http://www.w3.org/1999/xlink" x="0px" y="0px"
	 viewBox="0 0 41.1 38.9" enable-background="new 0 0 41.1 38.9" xml:space="preserve">
<path id="instagram-icon" fill="#414142" d="M26.4,15.7h8.4v12.8c0,3.1-2.5,5.7-5.7,5.7H11.8c-3.1,0-5.7-2.5-5.7-5.7V15.7h8.3
	c-0.9,1.2-1.4,2.7-1.4,4.2c0,4,3.3,7.3,7.3,7.3c4,0,7.3-3.3,7.3-7.3C27.7,18.4,27.2,16.9,26.4,15.7z M34.8,11.1v3.7h-9.1
	c-1.3-1.3-3.2-2.2-5.2-2.2c-2,0-3.9,0.8-5.2,2.2H6.1v-3.7c0-1.9,0.9-3.6,2.4-4.6v6.1h1.2V5.8c0.3-0.1,0.5-0.2,0.8-0.3v7h1.2V5.4
	c0,0,0.1,0,0.1,0h0.7v7.1h1.2V5.4h15.5C32.2,5.4,34.8,8,34.8,11.1z M32.2,8.7c0-0.5-0.4-0.9-0.9-0.9h-3.1c-0.5,0-0.9,0.4-0.9,0.9
	v3.1c0,0.5,0.4,0.9,0.9,0.9h3.1c0.5,0,0.9-0.4,0.9-0.9V8.7L32.2,8.7z M14.8,19.9c0-1.7,0.7-3.2,1.9-4.2c0.4-0.4,0.9-0.7,1.4-0.9
	c0.7-0.3,1.5-0.5,2.3-0.5c0.8,0,1.6,0.2,2.3,0.5c0.5,0.2,1,0.5,1.4,0.9c1.2,1,1.9,2.6,1.9,4.2c0,3.1-2.5,5.6-5.6,5.6
	C17.3,25.6,14.8,23,14.8,19.9z M16.3,19.9c0,2.3,1.9,4.2,4.2,4.2s4.2-1.9,4.2-4.2c0-2.3-1.9-4.2-4.2-4.2
	C18.1,15.8,16.3,17.6,16.3,19.9z"/>
</svg>
